<svg xmlns="http://www.w3.org/2000/svg" viewBox="0 0 4560 364" width="1140" height="91" preserveAspectRatio="none" aria-hidden="true" focusable="false">
<g transform="translate(0.000000,364.000000) scale(0.100000,-0.100000)"
fill="#FDF6EF" stroke="none">
<path d="M38 3606 l-38 -33 0 -275 0 -274 29 -21 c27 -21 41 -22 347 -25 226
-2 325 -7 340 -15 15 -9 23 -26 28 -60 3 -26 6 -680 6 -1453 0 -773 3 -1415 6
-1428 l6 -22 342 0 342 0 12 33 c9 25 12 377 12 1469 0 1252 2 1438 15 1451
22 22 82 26 394 26 276 -1 284 0 305 20 20 21 21 32 24 295 l3 274 -32 36 -31
36 -1037 0 -1036 -1 -37 -33z"/>
<path d="M2648 3615 c-20 -13 -39 -29 -42 -34 -8 -13 -8 -3525 0 -3557 l6 -24
344 0 343 0 11 40 c7 27 10 243 9 660 -1 556 1 623 15 645 16 25 18 25 160 25
139 0 146 -1 174 -25 18 -15 34 -42 42 -72 7 -27 26 -73 41 -104 16 -31 33
-79 40 -105 6 -27 22 -67 34 -89 13 -22 33 -74 45 -115 12 -41 33 -96 46 -121
13 -26 28 -68 35 -95 7 -27 24 -74 39 -104 15 -30 33 -77 40 -105 8 -27 29
-81 47 -120 18 -38 33 -79 33 -90 0 -11 18 -58 40 -105 22 -47 40 -93 40 -103
0 -16 22 -17 372 -15 l372 3 9 32 c7 24 6 41 -6 65 -8 18 -20 53 -27 78 -6 25
-22 63 -35 85 -13 22 -31 67 -40 100 -9 33 -27 78 -40 100 -12 22 -30 67 -40
100 -9 33 -27 78 -40 100 -13 22 -31 67 -40 100 -10 33 -29 82 -42 109 -14 27
-32 72 -40 100 -8 28 -28 76 -43 106 -15 30 -31 71 -35 90 -4 19 -20 60 -35
90 -16 31 -43 100 -61 154 l-32 99 44 39 c24 21 62 51 84 65 82 55 202 178
235 243 10 19 32 52 48 73 17 21 34 52 38 70 3 18 20 58 36 90 22 44 34 91 48
190 24 159 25 276 5 426 -18 134 -29 181 -56 224 -10 18 -24 50 -30 72 -6 22
-26 61 -44 86 -18 26 -40 60 -48 76 -18 34 -194 213 -209 213 -6 0 -34 17 -62
39 -28 21 -65 43 -81 48 -17 6 -47 22 -68 36 -21 14 -69 33 -108 41 -38 9 -86
23 -107 31 -53 20 -170 42 -291 54 -59 6 -325 11 -620 10 l-516 0 -37 -24z
m1145 -635 c87 -10 102 -15 202 -66 65 -33 87 -55 140 -135 56 -86 69 -154 63
-333 -5 -144 -14 -175 -75 -263 -32 -46 -108 -114 -161 -142 -53 -28 -253 -63
-392 -68 -170 -6 -220 3 -239 44 -9 20 -12 143 -12 482 0 453 1 456 22 474 18
15 44 17 193 17 94 0 211 -5 259 -10z"/>
<path d="M6134 3606 c-22 -22 -34 -44 -34 -61 0 -14 -12 -61 -26 -103 -14 -42
-34 -123 -45 -178 -11 -56 -30 -133 -43 -171 -14 -38 -32 -109 -40 -158 -9
-50 -25 -115 -37 -145 -11 -30 -30 -102 -41 -159 -10 -57 -28 -127 -39 -156
-11 -29 -28 -98 -39 -155 -11 -56 -30 -134 -44 -173 -14 -40 -32 -112 -40
-162 -9 -49 -25 -115 -37 -145 -11 -30 -30 -101 -40 -156 -11 -56 -30 -133
-43 -171 -14 -38 -32 -109 -40 -158 -9 -50 -25 -115 -37 -145 -12 -30 -29
-100 -39 -156 -11 -55 -28 -125 -39 -155 -12 -30 -31 -103 -42 -163 -12 -60
-31 -137 -44 -170 -12 -34 -30 -104 -39 -156 -9 -52 -25 -119 -36 -149 -30
-77 -50 -183 -43 -225 l6 -36 362 0 362 0 31 103 c17 56 39 145 47 197 9 52
27 129 39 170 13 41 31 119 40 174 19 108 35 149 68 167 31 17 858 14 875 -4
23 -24 74 -181 89 -280 9 -55 27 -132 40 -171 14 -39 31 -114 40 -166 8 -52
22 -116 31 -143 l17 -47 368 0 367 0 7 37 c5 28 -1 60 -24 133 -17 52 -36 127
-42 165 -6 39 -22 102 -36 142 -14 39 -33 116 -43 170 -11 54 -29 123 -40 153
-12 30 -28 96 -37 145 -8 50 -28 128 -43 175 -16 47 -34 117 -40 155 -6 39
-25 111 -41 160 -16 50 -34 124 -40 165 -7 41 -23 103 -36 138 -13 35 -31 105
-39 155 -9 50 -27 122 -41 160 -13 38 -32 115 -43 171 -10 55 -29 126 -40 156
-12 30 -28 96 -37 145 -8 50 -26 122 -40 162 -14 39 -34 120 -45 179 -11 58
-29 130 -41 158 -11 28 -26 89 -35 136 -8 47 -27 123 -42 170 -16 47 -31 108
-35 135 -14 101 -25 124 -66 150 l-40 25 -441 0 -441 0 -34 -34z m515 -920 c5
-13 16 -63 25 -112 8 -49 24 -115 35 -146 11 -31 27 -105 36 -164 10 -59 28
-138 41 -177 13 -39 33 -123 44 -186 10 -64 26 -134 35 -155 20 -48 45 -174
45 -227 0 -28 -5 -41 -20 -49 -14 -7 -109 -10 -285 -8 -313 4 -309 2 -282 90
9 29 23 96 31 148 9 52 25 122 36 155 12 33 30 112 40 176 11 64 29 143 40
175 12 32 30 112 41 176 17 103 62 257 90 311 14 24 38 21 48 -7z"/>
<path d="M8493 3602 l-43 -40 0 -1754 c0 -1382 3 -1760 13 -1781 l12 -27 695
2 c753 3 731 2 890 60 30 11 83 30 118 43 35 12 71 29 80 38 9 8 33 22 52 32
85 44 245 190 281 257 7 13 25 39 40 58 15 19 30 46 34 60 4 14 22 59 41 101
39 89 54 190 54 381 0 161 -15 270 -45 333 -13 28 -33 72 -45 99 -11 27 -33
64 -48 83 -71 88 -129 150 -159 171 -18 12 -33 27 -33 32 0 6 -29 24 -64 40
-45 21 -72 42 -91 70 -27 39 -27 41 -10 60 10 11 24 20 32 20 24 0 212 183
213 207 0 7 13 27 28 45 16 18 33 47 40 63 6 17 28 73 48 125 36 92 37 100 42
252 5 178 -8 295 -43 378 -12 30 -31 77 -40 103 -9 26 -27 60 -40 75 -12 15
-30 42 -39 59 -9 18 -30 43 -46 55 -16 12 -32 30 -36 40 -3 10 -22 27 -43 37
-20 11 -44 27 -52 37 -8 9 -39 29 -69 43 -30 15 -66 34 -80 44 -14 10 -47 24
-75 31 -364 100 -344 98 -1010 103 l-560 4 -42 -39z m1240 -672 c86 -39 102
-50 139 -99 63 -86 71 -110 71 -246 0 -133 -8 -173 -50 -242 -49 -81 -123
-142 -226 -186 -80 -34 -107 -41 -207 -49 -129 -10 -145 -18 -160 -84 -5 -21
-10 -112 -10 -202 0 -144 2 -167 21 -207 11 -24 29 -47 38 -50 10 -3 75 -10
146 -15 71 -5 145 -13 165 -16 51 -9 198 -82 244 -121 57 -48 114 -136 123
-191 11 -68 8 -260 -5 -307 -14 -50 -81 -141 -130 -177 -20 -15 -47 -35 -60
-44 -12 -9 -82 -31 -155 -50 -108 -28 -158 -35 -277 -40 -128 -5 -149 -3 -180
13 -24 12 -39 29 -46 52 -17 54 -13 2263 4 2284 20 24 40 25 257 23 l200 -2
98 -44z"/>
<path d="M11938 3612 c-44 -32 -51 -51 -77 -193 -10 -58 -26 -120 -34 -136 -9
-16 -27 -86 -41 -154 -14 -68 -34 -147 -45 -176 -11 -28 -28 -96 -37 -150 -9
-54 -25 -118 -36 -143 -11 -25 -30 -99 -43 -165 -13 -66 -32 -143 -44 -172
-11 -29 -28 -96 -37 -150 -9 -54 -25 -118 -35 -142 -10 -24 -26 -80 -34 -125
-9 -44 -20 -103 -26 -129 -5 -26 -16 -61 -23 -76 -8 -15 -26 -84 -40 -152 -13
-68 -33 -146 -44 -174 -11 -27 -27 -95 -37 -150 -10 -55 -28 -128 -41 -161
-13 -34 -30 -103 -39 -154 -9 -51 -27 -121 -40 -157 -14 -36 -32 -109 -41
-162 -9 -53 -27 -124 -40 -157 -13 -34 -30 -104 -39 -155 -9 -52 -27 -120 -40
-152 -19 -48 -21 -63 -12 -92 l10 -35 368 0 367 0 10 33 c6 17 18 75 26 127 9
52 25 121 36 153 11 31 29 108 39 170 19 109 59 256 84 307 l13 25 409 5 c226
3 427 1 448 -4 21 -5 44 -18 52 -30 7 -11 21 -66 30 -121 9 -55 27 -131 40
-170 14 -38 31 -113 40 -165 8 -52 25 -128 39 -167 14 -40 28 -93 32 -118 l6
-45 364 0 363 0 7 34 c8 46 -12 161 -47 269 -16 49 -36 129 -44 179 -9 49 -25
113 -36 141 -12 29 -29 98 -40 153 -11 56 -30 132 -43 170 -13 38 -31 110 -40
159 -8 50 -26 120 -39 155 -14 36 -32 110 -41 165 -10 55 -26 119 -36 143 -11
24 -29 93 -40 154 -12 61 -30 133 -42 162 -11 28 -29 99 -39 159 -11 59 -29
131 -40 160 -11 28 -31 107 -44 173 -13 67 -30 135 -38 151 -9 16 -25 79 -37
141 -11 61 -31 140 -44 174 -13 35 -31 108 -40 163 -10 55 -26 119 -36 143
-11 24 -29 93 -40 154 -12 61 -32 140 -46 176 -13 35 -24 73 -24 82 0 10 -12
32 -26 49 l-26 31 -446 -1 -447 -1 -37 -26z m503 -978 c30 -65 44 -115 60
-207 11 -67 31 -156 44 -197 14 -41 32 -119 40 -174 9 -54 27 -131 40 -170 13
-39 31 -118 41 -176 9 -58 25 -127 35 -153 35 -94 24 -97 -305 -97 -224 0
-265 2 -276 15 -18 22 -7 123 24 219 14 43 35 130 45 194 11 65 29 144 41 176
11 32 29 111 40 175 10 64 28 141 38 172 11 31 27 105 37 165 17 111 28 144
46 144 6 0 28 -39 50 -86z"/>
<path d="M14281 3605 l-31 -36 1 -1757 c1 -966 4 -1768 8 -1782 l7 -25 805 -3
805 -2 12 33 c8 23 12 111 12 271 0 203 -2 240 -16 262 -36 53 -41 54 -474 54
l-400 0 -20 33 c-20 31 -20 54 -20 1448 0 779 -3 1431 -6 1448 -5 23 -19 41
-50 61 l-43 30 -279 0 -280 0 -31 -35z"/>
<path d="M16323 3608 c-37 -25 -43 -34 -43 -66 -1 -2663 1 -3493 9 -3516 l11
-26 339 0 340 0 11 40 c7 26 10 262 10 707 0 368 -1 676 0 686 0 44 35 46 615
47 l547 1 24 -22 24 -22 0 -689 c0 -598 2 -693 15 -718 l16 -30 333 0 333 0
11 39 c14 46 17 3438 3 3509 -5 24 -19 54 -31 68 l-23 24 -286 0 -286 -1 -40
-34 -40 -34 -3 -685 -3 -685 -28 -30 -29 -31 -531 0 c-554 0 -575 1 -609 43
-10 12 -13 157 -15 707 l-2 692 -33 29 -32 29 -283 -1 -282 -1 -42 -30z"/>
<path d="M19640 3616 c-12 -14 -26 -44 -31 -68 -14 -71 -11 -3463 3 -3509 l11
-39 928 0 928 0 16 30 c12 24 15 74 15 273 l0 245 -40 36 -41 37 -517 -1
c-284 0 -525 0 -534 0 -9 0 -26 15 -37 33 -20 32 -21 48 -21 411 -1 368 0 377
20 406 12 17 27 30 33 30 7 1 209 1 450 0 429 -1 440 0 483 20 75 37 74 34 74
303 0 142 -4 246 -10 257 -6 11 -31 29 -57 40 -46 20 -62 21 -488 20 -242 -1
-445 -1 -452 0 -6 0 -21 15 -33 34 -21 34 -21 42 -18 401 l3 367 24 19 c24 19
42 20 558 18 599 -1 573 -4 593 72 7 26 10 127 8 280 l-3 239 -38 35 -38 35
-883 0 -883 0 -23 -24z"/>
<path d="M24450 3589 c-85 -28 -191 -69 -235 -90 -44 -22 -84 -39 -89 -39 -5
0 -35 -18 -68 -40 -33 -22 -66 -40 -72 -40 -7 0 -27 -16 -46 -35 -19 -19 -38
-35 -42 -35 -18 0 -186 -152 -238 -216 -30 -36 -70 -82 -87 -101 -18 -18 -33
-38 -33 -43 0 -5 -13 -24 -29 -43 -16 -18 -41 -60 -56 -92 -14 -33 -34 -69
-44 -80 -9 -11 -25 -47 -35 -80 -10 -33 -27 -72 -38 -87 -10 -15 -28 -69 -39
-120 -11 -51 -28 -116 -38 -143 -36 -96 -45 -198 -45 -510 0 -311 10 -418 44
-505 10 -25 25 -83 35 -130 9 -47 28 -104 42 -128 13 -24 31 -64 38 -90 8 -26
30 -72 50 -102 19 -30 35 -59 35 -66 0 -6 15 -31 33 -55 19 -24 42 -60 52 -79
10 -19 29 -46 42 -60 13 -14 45 -49 72 -79 27 -29 54 -58 61 -65 17 -17 95
-87 138 -124 47 -41 183 -132 198 -132 6 0 28 -13 48 -29 21 -17 61 -38 89
-47 29 -9 62 -23 73 -31 12 -7 55 -26 95 -40 l74 -27 668 -3 667 -3 10 26 c15
40 13 583 -3 614 -23 45 -118 38 -347 -25 -75 -21 -340 -30 -465 -17 -55 6
-127 21 -160 32 -33 11 -89 27 -125 36 -36 8 -81 25 -100 38 -19 12 -61 32
-92 45 -31 12 -59 29 -62 36 -3 8 -20 21 -38 31 -32 16 -62 41 -121 100 -67
67 -85 90 -92 112 -3 12 -17 30 -30 38 -13 9 -33 39 -44 68 -11 29 -31 69 -44
89 -13 19 -30 64 -37 99 -6 34 -24 92 -38 128 -26 65 -26 67 -27 340 0 272 0
276 26 350 15 41 34 106 43 143 8 38 24 81 35 96 11 15 31 51 45 81 66 139
220 301 347 365 25 13 51 31 58 39 8 9 39 23 70 32 31 8 81 26 113 40 118 51
367 70 632 49 187 -15 227 -23 298 -55 47 -22 99 -26 128 -10 34 18 40 75 40
371 0 283 0 286 -22 307 -13 11 -43 25 -68 31 -28 7 -243 10 -570 10 l-525 0
-155 -50z"/>
<path d="M27190 3610 c-41 -14 -118 -41 -170 -59 -52 -19 -104 -41 -115 -51
-11 -10 -45 -28 -76 -39 -31 -12 -66 -32 -79 -46 -13 -14 -29 -25 -36 -25 -7
0 -32 -16 -56 -35 -24 -20 -77 -63 -118 -96 -88 -72 -236 -231 -285 -309 -12
-19 -30 -41 -38 -49 -9 -7 -28 -38 -42 -69 -15 -32 -34 -66 -44 -77 -10 -11
-24 -38 -31 -60 -7 -22 -25 -62 -40 -90 -16 -27 -36 -80 -44 -117 -9 -37 -27
-94 -40 -125 -23 -56 -32 -110 -57 -353 -24 -230 11 -682 59 -775 8 -16 25
-70 38 -119 13 -49 31 -101 42 -115 11 -15 23 -38 27 -51 14 -48 48 -120 55
-120 4 0 19 -24 34 -52 31 -63 82 -139 127 -190 18 -20 39 -48 46 -61 7 -14
22 -28 33 -32 11 -3 20 -10 20 -15 0 -5 29 -37 65 -72 102 -98 222 -191 297
-229 24 -12 52 -29 63 -39 11 -10 31 -21 45 -25 14 -4 50 -19 80 -35 30 -15
80 -35 110 -45 30 -9 59 -21 64 -26 6 -5 290 -9 635 -9 l624 0 66 25 c104 40
232 101 317 153 66 40 121 78 197 139 55 43 247 234 247 245 0 4 19 28 41 55
23 26 48 61 55 78 7 16 24 41 38 54 14 13 28 36 31 52 4 16 22 51 40 78 18 26
39 68 45 92 6 24 23 63 36 87 14 23 34 81 44 130 11 48 28 112 39 142 32 91
43 212 44 470 0 266 -11 373 -48 485 -13 38 -29 99 -35 135 -7 36 -24 88 -40
115 -15 28 -33 70 -40 95 -6 25 -24 63 -39 85 -15 22 -35 59 -46 83 -10 23
-24 47 -32 54 -8 6 -24 30 -35 52 -35 70 -147 197 -318 360 -19 19 -45 37 -57
40 -12 4 -32 20 -43 35 -11 16 -31 32 -44 35 -14 3 -46 22 -71 42 -26 20 -64
42 -84 49 -20 7 -58 27 -86 44 -27 17 -56 31 -64 31 -9 1 -34 8 -56 16 -22 8
-84 31 -137 50 l-97 34 -493 -1 -493 -1 -75 -28z m825 -630 c44 -6 105 -23
135 -37 30 -14 78 -32 105 -40 28 -8 61 -25 75 -38 14 -12 41 -31 60 -40 81
-41 240 -196 280 -274 10 -21 25 -41 33 -44 7 -3 22 -27 32 -53 10 -27 31 -68
46 -92 15 -24 32 -70 38 -106 6 -34 23 -96 38 -137 25 -69 27 -87 31 -279 4
-221 3 -228 -57 -455 -18 -66 -41 -132 -52 -147 -10 -15 -28 -51 -40 -80 -11
-29 -31 -64 -44 -78 -12 -14 -30 -39 -39 -57 -9 -18 -25 -37 -36 -43 -11 -6
-26 -23 -35 -38 -8 -15 -39 -47 -70 -72 -31 -25 -73 -59 -93 -76 -48 -40 -197
-119 -242 -129 -19 -4 -73 -20 -119 -36 -71 -25 -106 -30 -225 -35 -151 -7
-299 6 -359 31 -20 8 -71 24 -114 36 -43 11 -94 31 -113 44 -19 13 -51 32 -71
42 -90 45 -238 175 -285 249 -10 16 -31 44 -46 62 -15 18 -28 38 -28 45 0 7
-15 34 -34 60 -19 26 -40 71 -47 100 -6 29 -22 72 -34 97 -35 70 -46 147 -52
365 -7 262 7 416 47 505 16 36 36 90 44 121 9 31 23 62 32 70 9 7 27 38 40 67
32 73 53 97 250 292 16 16 34 30 40 30 5 0 40 20 79 45 38 25 76 45 83 45 7 0
46 16 86 35 58 28 96 38 187 49 125 16 342 14 474 -4z"/>
<path d="M30184 3609 l-29 -30 -5 -1752 c-4 -1311 -2 -1761 7 -1787 l11 -35
329 -3 329 -2 12 43 c11 35 13 259 11 1069 -1 564 2 1031 6 1038 5 8 14 5 31
-11 13 -12 33 -27 46 -33 13 -6 31 -34 43 -66 12 -30 36 -77 53 -104 18 -28
32 -55 32 -61 0 -7 13 -30 28 -51 16 -21 41 -64 56 -94 62 -123 92 -177 113
-204 12 -15 30 -48 39 -74 10 -26 27 -58 40 -72 12 -14 32 -50 44 -82 11 -31
28 -62 36 -69 9 -7 28 -40 43 -73 15 -34 35 -67 44 -74 9 -8 21 -30 28 -50 6
-20 22 -51 35 -68 13 -18 35 -58 49 -90 14 -32 35 -68 45 -79 11 -11 26 -41
35 -65 9 -24 24 -54 35 -65 10 -11 32 -50 48 -86 17 -37 35 -70 41 -74 6 -3
25 -34 42 -68 56 -112 94 -182 117 -214 12 -18 28 -47 34 -65 6 -18 23 -50 39
-70 16 -20 34 -48 40 -62 l12 -26 312 0 313 0 6 23 c11 43 7 3547 -5 3569 -23
42 -62 48 -338 48 l-260 0 -44 -30 c-36 -24 -46 -37 -51 -67 -3 -21 -6 -473
-6 -1005 0 -658 -3 -976 -11 -995 -21 -57 -51 -51 -75 15 -10 26 -28 62 -41
80 -13 18 -35 56 -48 85 -12 29 -30 58 -38 65 -8 7 -25 36 -37 63 -12 28 -35
69 -51 92 -16 22 -29 45 -29 52 0 6 -15 33 -32 61 -36 54 -70 115 -119 214
-17 36 -42 76 -54 90 -12 14 -30 45 -39 70 -10 25 -26 54 -36 65 -10 11 -28
43 -40 70 -12 28 -30 59 -40 70 -10 11 -28 42 -39 68 -11 26 -32 63 -46 81
-14 18 -30 48 -37 67 -6 19 -24 50 -39 69 -16 19 -35 55 -44 80 -9 25 -26 56
-39 70 -13 14 -31 45 -40 70 -10 25 -26 54 -36 65 -11 11 -26 38 -35 59 -9 21
-32 61 -51 88 -19 28 -34 56 -34 63 0 7 -12 30 -27 51 -15 21 -38 61 -52 88
-44 84 -54 86 -351 86 l-256 0 -30 -31z"/>
<path d="M34505 3604 c-49 -19 -122 -45 -160 -58 -39 -13 -88 -35 -108 -49
-21 -14 -55 -31 -75 -38 -20 -6 -48 -22 -62 -34 -14 -13 -43 -32 -66 -43 -22
-11 -47 -28 -55 -38 -7 -9 -31 -28 -52 -41 -61 -38 -189 -163 -264 -256 -67
-82 -133 -174 -133 -184 0 -6 -13 -26 -28 -46 -16 -20 -37 -57 -47 -84 -10
-26 -28 -64 -41 -83 -12 -19 -32 -68 -44 -109 -12 -40 -30 -90 -40 -110 -11
-20 -27 -81 -35 -136 -9 -55 -26 -145 -37 -200 -29 -141 -36 -380 -14 -500 9
-49 27 -157 42 -240 14 -86 34 -167 46 -190 11 -22 29 -71 39 -108 11 -37 30
-85 44 -105 13 -20 31 -57 40 -82 9 -24 24 -54 34 -65 10 -11 31 -45 46 -75
15 -30 34 -59 41 -63 8 -4 21 -21 29 -37 36 -69 318 -352 368 -369 7 -2 29
-19 50 -37 20 -19 43 -34 51 -34 8 0 38 -16 67 -36 30 -20 71 -43 92 -50 22
-8 55 -23 75 -34 21 -10 64 -29 97 -42 59 -22 65 -22 685 -25 516 -3 631 -1
660 10 42 17 123 50 205 84 33 14 69 33 80 44 11 10 46 29 78 43 31 14 57 30
57 35 0 5 17 20 38 32 91 55 310 267 369 357 19 29 40 55 48 58 7 3 19 20 26
37 7 18 25 48 40 68 15 19 35 55 45 80 10 24 26 56 36 71 11 15 32 65 48 112
15 46 35 94 43 107 9 13 23 65 32 114 9 50 28 137 43 195 25 100 27 116 27
355 0 228 -2 257 -22 325 -12 41 -32 126 -43 189 -12 63 -32 135 -45 160 -12
25 -30 69 -38 96 -22 71 -118 249 -185 344 -18 25 -40 59 -50 75 -15 25 -32
45 -103 123 -9 10 -27 28 -40 40 -13 12 -32 30 -42 40 -67 67 -108 103 -116
103 -5 0 -29 16 -53 36 -23 20 -57 43 -73 50 -17 7 -39 21 -48 32 -10 11 -44
30 -75 43 -31 12 -66 31 -78 41 -11 10 -54 29 -95 43 -41 13 -118 40 -172 59
l-99 36 -496 -1 -497 -1 -90 -34z m795 -619 c115 -13 145 -20 205 -49 39 -19
84 -37 100 -41 17 -3 47 -20 67 -36 21 -16 46 -33 57 -37 35 -13 118 -88 244
-222 13 -14 33 -43 45 -66 11 -22 27 -46 36 -53 8 -7 24 -36 35 -64 10 -29 31
-74 45 -102 14 -27 33 -88 41 -135 8 -47 22 -110 30 -140 9 -31 18 -117 22
-195 5 -133 3 -149 -31 -320 -56 -279 -135 -440 -294 -601 -108 -109 -156
-148 -222 -178 -28 -13 -60 -32 -70 -41 -11 -10 -57 -28 -103 -41 -45 -12
-109 -33 -142 -45 -55 -21 -76 -23 -265 -23 -195 0 -209 1 -280 26 -41 15
-102 34 -135 43 -33 9 -76 27 -95 39 -19 13 -55 33 -80 44 -102 49 -285 225
-335 322 -10 19 -29 49 -41 66 -13 17 -32 55 -43 85 -10 30 -28 72 -39 94 -29
55 -75 324 -80 460 -4 140 44 442 83 516 13 26 33 73 44 105 12 31 29 67 40
78 10 12 26 37 36 56 19 38 27 48 137 159 105 105 118 117 164 139 22 11 46
27 53 36 7 8 29 20 49 27 20 6 72 27 114 45 131 58 358 77 608 49z"/>
<path d="M38088 3629 c-125 -18 -360 -90 -395 -120 -10 -9 -40 -28 -68 -42
-53 -27 -149 -115 -200 -182 -26 -34 -66 -100 -111 -185 -19 -37 -54 -256 -54
-343 0 -41 9 -128 20 -193 18 -105 29 -139 69 -211 6 -10 19 -38 31 -63 32
-70 119 -193 195 -274 56 -60 386 -403 610 -633 102 -105 211 -224 242 -264
49 -63 57 -80 66 -140 7 -49 7 -89 0 -138 -9 -59 -17 -77 -52 -118 -34 -41
-52 -53 -113 -73 -72 -25 -77 -25 -548 -30 -496 -6 -528 -8 -550 -50 -11 -20
-14 -488 -4 -537 l7 -33 679 0 680 0 85 30 c47 17 97 39 112 49 14 10 37 22
51 26 31 9 83 51 163 131 85 84 107 115 155 215 48 101 56 134 72 292 18 173
-12 430 -56 478 -8 9 -24 41 -35 70 -11 29 -34 68 -50 86 -16 19 -29 38 -29
44 0 14 -134 164 -290 324 -75 77 -194 200 -265 274 -72 74 -157 162 -190 195
-59 60 -204 223 -257 288 -35 45 -50 105 -49 205 0 116 20 155 106 212 89 58
127 62 576 60 396 -2 416 1 430 51 4 14 7 140 8 281 1 278 2 272 -59 308 -34
20 -46 21 -480 20 -245 -1 -471 -5 -502 -10z"/>
<path d="M40790 3599 c-63 -22 -143 -48 -178 -58 -34 -10 -79 -30 -100 -44
-20 -13 -54 -30 -75 -37 -21 -6 -50 -22 -66 -36 -16 -13 -49 -32 -74 -43 -25
-11 -49 -26 -54 -34 -4 -8 -23 -24 -42 -35 -85 -51 -297 -270 -356 -367 -12
-19 -29 -43 -39 -54 -10 -10 -30 -46 -46 -79 -15 -33 -33 -62 -38 -66 -6 -3
-18 -30 -28 -59 -9 -28 -29 -77 -45 -107 -15 -30 -35 -91 -45 -135 -9 -44 -23
-92 -30 -107 -8 -14 -21 -68 -31 -120 -14 -76 -17 -154 -17 -418 -1 -341 8
-437 45 -535 11 -27 26 -81 35 -120 8 -38 25 -92 38 -120 14 -27 36 -79 50
-114 14 -36 32 -72 40 -80 7 -9 21 -32 31 -51 36 -74 93 -155 175 -249 82 -94
259 -261 277 -261 4 0 24 -13 43 -29 19 -15 60 -41 90 -56 30 -15 64 -35 75
-45 11 -10 38 -23 60 -30 22 -7 60 -23 85 -35 25 -12 70 -30 100 -40 30 -10
59 -21 64 -26 6 -5 309 -9 678 -9 l667 0 11 38 c7 24 10 132 8 313 -4 321 -3
319 -89 319 -53 0 -162 -21 -227 -44 -127 -45 -507 -46 -649 -1 -43 13 -107
31 -143 39 -68 16 -216 86 -269 127 -90 69 -160 134 -196 179 -22 28 -52 65
-66 83 -42 53 -115 198 -129 257 -7 30 -24 83 -37 118 -50 136 -53 573 -4 719
11 32 29 94 41 138 11 44 30 92 41 108 11 15 28 46 38 70 49 114 249 322 348
363 21 9 47 25 59 35 11 11 58 32 105 48 46 16 102 36 125 44 94 36 426 50
650 28 106 -11 144 -19 243 -56 59 -22 116 -12 139 23 15 23 17 62 20 317 2
219 -1 296 -10 314 -8 15 -32 31 -63 42 -45 16 -101 17 -585 18 l-535 0 -115
-40z"/>
<path d="M43475 3603 c-49 -19 -125 -45 -167 -59 -42 -13 -80 -29 -84 -35 -4
-6 -39 -26 -79 -44 -40 -19 -76 -38 -80 -44 -3 -6 -25 -21 -48 -32 -23 -12
-58 -36 -78 -53 -20 -17 -65 -53 -98 -81 -99 -80 -225 -218 -283 -310 -14 -22
-32 -46 -41 -53 -8 -7 -21 -27 -28 -45 -7 -18 -28 -54 -46 -81 -18 -26 -33
-54 -33 -61 0 -7 -16 -43 -35 -78 -19 -36 -41 -92 -49 -125 -9 -32 -27 -89
-41 -126 -32 -86 -67 -335 -72 -526 -6 -190 34 -529 74 -628 14 -36 32 -92 39
-125 8 -33 27 -83 43 -111 16 -28 34 -68 40 -88 7 -20 25 -53 42 -74 16 -20
29 -42 29 -48 0 -6 14 -31 30 -56 17 -25 39 -58 50 -75 30 -45 75 -95 182
-203 132 -132 161 -158 195 -176 16 -8 36 -22 43 -31 8 -9 39 -29 70 -45 31
-16 62 -35 69 -44 7 -8 38 -25 69 -36 32 -12 71 -30 87 -40 17 -9 55 -25 85
-35 30 -10 59 -21 64 -26 6 -5 292 -9 638 -9 510 0 633 3 660 14 18 7 58 24
88 36 140 57 177 74 204 94 16 11 46 30 66 41 141 77 411 323 462 420 10 19
27 36 38 40 20 6 20 13 20 1160 0 1143 0 1153 -20 1158 -11 3 -28 20 -37 38
-20 37 -276 299 -293 299 -5 0 -27 15 -47 34 -21 18 -57 43 -80 55 -23 11 -45
26 -48 32 -4 6 -37 24 -72 40 -36 16 -77 37 -91 48 -15 10 -56 27 -92 39 -36
11 -109 37 -163 56 l-99 36 -496 -1 -497 -1 -90 -35z m794 -618 c108 -12 147
-21 195 -44 34 -16 79 -34 101 -41 22 -7 56 -24 75 -38 19 -15 49 -34 67 -43
17 -9 47 -29 65 -45 66 -58 184 -184 198 -211 8 -15 24 -39 36 -53 12 -14 32
-50 45 -80 12 -30 31 -67 41 -81 9 -15 27 -64 38 -110 11 -46 30 -118 42 -159
19 -66 21 -100 22 -280 1 -195 0 -209 -26 -295 -15 -49 -35 -122 -43 -162 -9
-40 -25 -83 -35 -96 -11 -13 -29 -49 -40 -80 -12 -31 -26 -59 -31 -63 -6 -3
-26 -29 -44 -58 -32 -50 -170 -194 -239 -249 -20 -16 -59 -40 -88 -54 -29 -14
-64 -33 -78 -43 -14 -10 -53 -25 -85 -34 -33 -8 -94 -28 -135 -43 -72 -26 -82
-27 -280 -27 -203 0 -206 0 -295 31 -49 17 -106 34 -125 38 -19 4 -60 22 -91
40 -31 19 -68 39 -83 45 -59 22 -224 173 -297 271 -27 37 -49 71 -49 76 0 5
-13 27 -30 49 -16 22 -42 78 -59 125 -16 46 -36 103 -45 125 -22 59 -46 272
-46 404 0 143 25 348 51 419 12 31 32 87 45 125 13 39 31 77 38 85 8 9 25 39
39 66 14 28 39 66 56 85 74 85 117 132 135 148 70 62 95 81 126 97 19 10 48
28 63 41 16 13 41 27 55 30 15 4 62 22 104 40 131 58 358 77 607 49z"/>
</g>
</svg>
